<svg xmlns="http://www.w3.org/2000/svg" version="1.1" xmlns:xlink="http://www.w3.org/1999/xlink" xmlns:svgjs="http://svgjs.dev/svgjs" width="1000" height="1125" viewBox="0 0 1000 1125"><g transform="matrix(1,0,0,1,1.7053025658242404e-13,0)"><svg viewBox="0 0 320 360" data-background-color="#ffffff" preserveAspectRatio="xMidYMid meet" height="1125" width="1000" xmlns="http://www.w3.org/2000/svg" xmlns:xlink="http://www.w3.org/1999/xlink"><g id="tight-bounds" transform="matrix(1,0,0,1,0,0)"><svg viewBox="0 0 320 360" height="360" width="320"><g><svg></svg></g><g><svg viewBox="0 0 320 360" height="360" width="320"><g><path xmlns="http://www.w3.org/2000/svg" d="M20.961 227.22l3.726 4.658-1.863-6.056c-0.466-2.795-3.726 0.466-1.863 1.398M25.153 224.425c1.397 2.329 2.795 4.658 2.795 6.987 0 3.261 2.795 4.658 5.123 5.589-3.261-3.726-5.124-13.974-7.918-12.576M204.017 26.929c7.918 0 15.371-0.932 23.756 0.931 20.495 5.124 37.729 15.371 49.374 29.811l32.606 52.169c1.397 13.042 4.192 27.482 3.726 43.319 3.261 0 2.795-4.658 6.521-5.59-3.726 9.316-5.59 20.961-6.521 34.469-2.329-7.453 0-18.632 0.466-24.687-3.261 5.124-5.124 1.397-5.124-0.932 0.466-3.726-1.397-3.261-2.795-4.658-5.124-4.658-8.384-9.782-12.11-17.7 2.329-6.055 2.795-14.905-4.658-19.563-2.329-1.397-5.124-3.726-6.521-7.453-1.863-5.124-5.124-11.179-4.193-19.097 0.466-2.329-6.987 5.124-11.179 1.863-18.166-12.576-36.332-27.016-58.224-39.127-11.645 0-20.029-4.192-24.221-9.316-3.726-4.658-0.932-10.713 4.658-11.179 3.261 0 6.987-0.932 9.782 0.932 0.466-1.863 2.329-4.192 4.657-4.192M157.904 16.215l0.932 0.466c4.658 0.932 6.987 7.453 12.11 5.124 0 3.261 0.466 6.521-0.466 8.85-1.397 3.726-5.59 3.726-8.85 3.726-31.208-1.863-49.374 11.179-68.471 22.358-5.124 3.261-10.713 5.59-14.906 9.782-20.029 18.632-41.921 35.866-47.045 70.335l-4.192 38.195c-0.466 4.192-5.124 8.384-4.192 13.508l3.26 22.824c-3.261-3.261-5.124 0.932-4.192 2.795 0.466 1.397 2.329 6.055 5.124 1.863 3.726 6.987 7.453 20.495 12.576 26.55 15.837 18.632 36.332 35.4 53.101 52.169 4.192-0.932 7.453-0.932 8.384-3.727 1.397 2.795-1.397 5.59-3.726 6.056 7.453 4.658 15.837 8.85 27.016 9.781 14.44 0.932 27.948 3.261 40.524 6.522 6.521-1.863 13.042-2.795 20.029-3.261 2.329 0 3.726-3.726 6.521-4.658l0.466-4.658c2.795 4.192 2.329-1.397 0.466-4.192 3.261 2.795 4.192 5.124 5.589 6.987 0-1.397 3.726-6.521 3.727-0.466l0.931-6.055c1.397-0.932 1.863 5.124 3.261 0.931 1.397-4.192 4.192-0.932 6.987-2.329-0.932 1.863-0.466 5.59 2.794 3.261l3.727-3.261c2.329 5.59 6.055 3.261 7.918 2.329 20.495-13.042 40.99-28.413 60.553-43.784l-0.466 6.055 2.329-7.453c2.329 2.329 4.192 0.466 5.124-0.931 2.795-4.658 6.521-9.316 12.577-13.508-7.453 20.029-16.303 35.866-27.482 48.908l-4.658 5.59c0 3.261-0.932 7.453-4.658 7.918-1.863 0.466-5.59-0.932-8.384 1.863-1.397 1.863 3.261 5.59-0.466 2.795-3.261-2.329-6.521 0-10.248 0.932-2.795 0.932 1.863 3.726 2.795 5.589 0.932 1.863 1.863 3.726 1.398 6.056l-5.124-5.59c-6.055 3.261-9.782 9.316-14.906 13.974-2.329 1.863-1.397 5.124-1.397 7.918-3.261 0-6.987-0.932-8.85 0.932-1.397 1.863-0.932 4.658-0.932 7.453-4.658-0.466-5.124-7.453-9.315-6.056-4.192 0.932-8.85 1.397-12.577 3.727 2.795 5.59-4.658 2.329-3.726 3.26-6.987-4.192-13.042-7.453-20.495-4.658-15.837-5.124-35.4-2.795-49.84-0.931 0-2.329 0.466-4.658-0.466-5.124-0.932 2.329-3.726 1.397-3.26 1.397-8.85-6.055-17.7-9.782-27.016-14.905-8.384 0.932-16.303-3.261-18.632-5.59-6.521-6.055-13.974-2.795-20.029-4.192-13.042-3.261-17.7-16.769-19.098-26.084-0.932-4.658-4.658-6.521-6.055-6.056-6.055-19.563-15.371-37.263-22.824-55.429-1.863-4.658-1.397-9.316-1.397-14.44 2.329 0.932 4.658 0.466 4.192-2.794-2.329-15.371-7.918-27.016-13.974-38.195 3.261-15.837 3.726-34.469 11.179-48.443 6.521-12.576 18.632-19.098 27.016-29.811 2.795-3.726 2.795-8.85 5.59-12.11 9.316-9.316 18.632-19.098 28.879-27.482 4.658-3.726 10.247 0 17.234-1.397 2.329-8.384 11.645-15.837 20.495-13.508 3.726 0.932 11.179-8.85 13.508-9.782 3.726-1.397 1.863 3.726 1.863 6.987 8.85-6.987 20.961-10.713 32.14-14.906" fill="#ffccea" fill-rule="nonzero" stroke="none" stroke-width="1" stroke-linecap="butt" stroke-linejoin="miter" stroke-miterlimit="10" stroke-dasharray="" stroke-dashoffset="0" font-family="none" font-weight="none" font-size="none" text-anchor="none" style="mix-blend-mode: normal" data-fill-palette-color="tertiary"></path></g><g transform="matrix(1,0,0,1,64,152.6952173763421)"><svg viewBox="0 0 192 54.60956524731582" height="54.60956524731582" width="192"><g><svg viewBox="0 0 192 54.60956524731582" height="54.60956524731582" width="192"><g><svg viewBox="0 0 192 54.60956524731582" height="54.60956524731582" width="192"><g><svg viewBox="0 0 192 54.60956524731582" height="54.60956524731582" width="192"><g id="textblocktransform"><svg viewBox="0 0 192 54.60956524731582" height="54.60956524731582" width="192" id="textblock"><g><svg viewBox="0 0 192 54.60956524731582" height="54.60956524731582" width="192"><g transform="matrix(1,0,0,1,0,0)"><svg width="192" viewBox="3.25 -35.95000076293945 128.32286071777344 36.5" height="54.60956524731582" data-palette-color="#ffccea"><path d="M25.75-2.05Q27.1-0.7 27.1-0.2L27.1-0.2Q27.1-0.1 26.85 0.15L26.85 0.15Q26.4 0.45 24.6 0.45L24.6 0.45Q23.3 0.45 22.95 0.28 22.6 0.1 22.43-0.3 22.25-0.7 22.15-0.9L22.15-0.9Q22-1.2 20.93-2.63 19.85-4.05 19.3-4.8L19.3-4.8Q16.65-8.2 14.7-10.95L14.7-10.95Q13.5-12.65 10.25-16.8L10.25-16.8 9.45-17.8 6-22.1 5.8-20.1Q5.6-18.6 5.7-16.5L5.7-16.5Q5.85-15.1 5.9-9.25 5.95-3.4 5.95-0.7L5.95-0.7Q5.95 0.1 5.35 0.33 4.75 0.55 3.95 0.55L3.95 0.55Q3.6 0.55 3.5 0.25 3.4-0.05 3.38-0.4 3.35-0.75 3.35-0.85L3.35-0.85Q3.25-1.65 3.25-3.2L3.25-3.2Q3.25-4.2 3.3-4.7L3.3-4.7Q3.35-7.4 3.45-14.13 3.55-20.85 3.55-26.2L3.55-26.2Q3.55-31.95 3.4-32.9L3.4-32.9Q3.35-33.3 3.35-33.95L3.35-33.95Q3.35-34.7 3.58-34.9 3.8-35.1 4.25-35.1L4.25-35.1Q5.25-35.1 6.2-35.05L6.2-35.05 11.65-34.95Q14.65-34.95 17.9-33.9 21.15-32.85 21.15-30L21.15-30Q21.15-27.3 19.15-25.8 17.15-24.3 14.68-23.75 12.2-23.2 10.35-23.2L10.35-23.2Q9.7-23.2 9.65-23.25L9.65-23.25Q9.95-22.95 13.6-17.95L13.6-17.95Q24.6-3.2 25.75-2.05L25.75-2.05ZM5.85-25.25Q7.5-25.25 8.35-25.3L8.35-25.3Q11.25-25.4 12.85-25.7L12.85-25.7Q15.15-26.1 16.32-26.8 17.5-27.5 17.5-29L17.5-29Q17.5-30 16.45-30.73 15.4-31.45 13.93-31.83 12.45-32.2 11.35-32.2L11.35-32.2Q10.1-32.25 7.85-32.25L7.85-32.25 6.15-32.25 5.85-25.25ZM49.9-34.9Q52.9-32.9 54.72-29.5 56.55-26.1 57.27-22.88 58-19.65 58-17.8L58-17.8Q58-14.7 57.02-10.6 56.05-6.5 52.85-2.98 49.65 0.55 43.6 0.55L43.6 0.55Q35.3 0.55 31.8-9.1L31.8-9.1Q30.25-13.45 30.05-18.8L30.05-18.8Q30.05-23.2 31.9-27.18 33.75-31.15 36.77-33.55 39.8-35.95 43-35.95L43-35.95Q45.9-35.95 47.32-35.8 48.75-35.65 49.9-34.9L49.9-34.9ZM43.35-2.25Q48.65-2.25 51.25-6.68 53.85-11.1 53.85-17.8L53.85-17.8Q53.85-21.9 52.62-25.38 51.4-28.85 49.17-30.93 46.95-33 44.05-33L44.05-33Q43.8-33 42.72-33 41.65-33 40.85-32.65 40.05-32.3 39.4-31.6L39.4-31.6Q37.75-29.95 36.62-28.58 35.5-27.2 34.37-24.5 33.25-21.8 33.25-18.25L33.25-18.25Q33.25-14.05 34.27-10.43 35.3-6.8 37.55-4.53 39.8-2.25 43.35-2.25L43.35-2.25ZM72.59-21.5L74.75-21.45Q75.8-21.45 76.7-21.55L76.7-21.55Q77-21.6 77.65-21.6L77.65-21.6Q78.34-21.6 78.7-21.55L78.7-21.55 79.84-21.45 80-22.95 80.15-25.35 80.25-30.25 80.34-34.1Q80.4-34.85 80.55-35.1 80.7-35.35 81.25-35.4L81.25-35.4Q81.75-35.4 84.05-35.7L84.05-35.7Q84.45-35.75 85.5-35.75L85.5-35.75Q87.09-35.75 88.15-35.6L88.15-35.6Q88.7-35.5 88.82-35.38 88.95-35.25 88.97-34.95 89-34.65 89.05-34.4L89.05-34.4Q89.05-33.6 88.9-31.7L88.9-31.7Q88.7-28.2 88.7-26.9L88.7-26.9Q88.7-26.25 88.4-22.75L88.4-22.75Q88.09-18.95 88.09-17.8L88.09-17.8 88.2-7.9Q88.2-2.3 88.4-1.05L88.4-1.05 88.4-0.95Q88.4-0.4 88.2-0.28 88-0.15 87.75-0.18 87.5-0.2 87.4-0.2L87.4-0.2Q87-0.3 86.4-0.3L86.4-0.3Q86.2-0.3 85.09-0.2L85.09-0.2Q83.7-0.05 80.59-0.05L80.59-0.05 80.5-0.05Q79.8-0.05 79.8-0.5L79.8-0.5Q79.8-1.45 79.77-4.25 79.75-7.05 79.59-8.35L79.59-8.35Q79.5-10.25 79.5-12.05L79.5-12.05Q79.45-12.8 79.45-14.35L79.45-14.35 78-14.35 75.84-14.3 74.95-14.25 73.95-14.3Q73.2-14.3 72.75-14.35L72.75-14.35 72.59-11.2Q72.45-9.45 72.45-6.65L72.45-6.65 72.45-4.1Q72.45-1.4 72.55-0.85L72.55-0.85Q72.65-0.25 72.37-0.13 72.09 0 71.72 0 71.34 0 71.2 0L71.2 0Q70.8-0.05 69.84-0.13 68.9-0.2 68.3-0.2L68.3-0.2 66.84-0.1Q66.5-0.05 64.25 0.1L64.25 0.1Q63.1 0.25 63.1-1.3L63.1-1.3 63.15-3.25 63.25-6.85Q63.25-7.95 63.3-8.9L63.3-8.9 63.35-14.7Q63.35-16.7 63.3-17.25L63.3-17.25Q63.15-18.4 63.15-20.25L63.15-20.25 63.2-23.3Q63.25-24.05 63.25-25.25L63.25-25.25Q63.25-26.65 63.55-31.05L63.55-31.05 63.7-34.5Q63.7-34.9 63.85-35.05 64-35.2 64.3-35.2L64.3-35.2 64.95-35.15Q65.59-35.05 66.65-35 67.7-34.95 68.7-34.95L68.7-34.95 71-35Q71.55-35.05 72.25-35.05L72.25-35.05 72.3-35.05Q72.7-35.05 72.7-34.5L72.7-34.5Q72.75-34.4 72.77-32.52 72.8-30.65 72.8-28.1L72.8-28.1Q72.8-26.5 72.7-23.8L72.7-23.8 72.59-21.5ZM96.54-35.25Q97.19-35.2 97.82-35.23 98.44-35.25 98.89-35.25L98.89-35.25Q99.99-35.25 100.49-35.2L100.49-35.2Q101.09-35.15 101.34-34.95 101.59-34.75 101.59-34.4L101.59-34.4Q101.59-34.15 101.54-33.85 101.49-33.55 101.44-33.3L101.44-33.3Q100.89-29.05 100.84-24.55L100.84-24.55Q100.79-23.25 100.79-20.55L100.79-20.55 100.84-14.5Q100.89-13.75 100.89-12.95L100.89-12.95 100.94-10.95Q101.04-8.35 101.04-7.1L101.04-7.1Q101.04-6.15 100.99-5.95L100.99-5.95Q100.94-5.75 100.94-4.8L100.94-4.8 100.99-2.05Q101.04-1.45 101.04-0.55L101.04-0.55Q101.09 0.1 100.67 0.28 100.24 0.45 99.54 0.4L99.54 0.4 94.99 0.4Q94.24 0.45 94.04 0.08 93.84-0.3 93.79-1.15L93.79-1.15Q93.69-1.5 93.89-3L93.89-3Q94.09-4.4 94.09-5.4L94.09-5.4Q94.09-5.75 94.44-12.15L94.44-12.15Q94.74-16.85 94.74-17.3L94.74-17.3 94.84-22.2 94.94-26.75 95.04-29.45 95.14-31.25 95.14-33.35Q95.14-35.3 96.14-35.3L96.14-35.3Q96.39-35.3 96.54-35.25L96.54-35.25ZM130.74-35.95Q131.34-35.9 131.47-35.65 131.59-35.4 131.57-34.98 131.54-34.55 131.54-34.35L131.54-34.35Q131.59-33.7 131.29-33.45 130.99-33.2 130.34-33.2L130.34-33.2Q129.94-33.2 128.82-33.15 127.69-33.1 126.09-33.15L126.09-33.15 125.89-33.15 125.79-24.1 125.74-15.3Q125.74-13.3 125.97-10.23 126.19-7.15 126.24-6.35L126.24-6.35Q126.54-2.35 126.54-1.85L126.54-1.85Q126.59-0.85 126.09-0.55 125.59-0.25 124.34-0.25L124.34-0.25 122.14-0.3Q121.89-0.3 113.94-0.45L113.94-0.45 110.84-0.5Q110.34-0.5 110.34-1.5L110.34-1.5Q110.34-1.85 110.44-2.85L110.44-2.85Q110.54-4.15 110.54-4.85L110.54-4.85Q110.44-6.15 110.44-9.4L110.44-9.4Q110.44-13.75 110.57-18.7 110.69-23.65 110.89-26.15L110.89-26.15Q110.99-27.45 110.99-29.65L110.99-29.65Q110.99-32.1 110.84-33.35L110.84-33.35 109.94-33.4 105.79-33.3Q105.39-33.3 105.39-34.1L105.39-34.1 105.44-35.2Q105.44-35.6 105.57-35.73 105.69-35.85 105.99-35.85L105.99-35.85Q106.19-35.85 106.49-35.8 106.79-35.75 107.19-35.75L107.19-35.75 117.84-35.8 126.54-35.9Q128.59-35.95 130.74-35.95L130.74-35.95Z" opacity="1" transform="matrix(1,0,0,1,0,0)" fill="#ffccea" class="undefined-text-0" data-fill-palette-color="primary" id="text-0"></path></svg></g></svg></g></svg></g></svg></g><g></g></svg></g></svg></g></svg></g></svg></g><defs></defs></svg><rect width="320" height="360" fill="none" stroke="none" visibility="hidden"></rect></g></svg></g></svg>